<?xml version="1.0" encoding="utf-8"?>
<!-- Generator: Adobe Illustrator 24.0.0, SVG Export Plug-In . SVG Version: 6.00 Build 0)  -->
<svg version="1.1" id="Layer_1" xmlns="http://www.w3.org/2000/svg" xmlns:xlink="http://www.w3.org/1999/xlink" x="0px" y="0px"
	 viewBox="0 0 512 512" style="enable-background:new 0 0 512 512;" xml:space="preserve">
<style type="text/css">
	.st0{fill:#FFFFFF;stroke:#2D2D2D;stroke-width:4;stroke-miterlimit:10;}
	.st1{fill:#2D2D2D;}
	.st2{fill:#11C4E0;}
</style>
<g>
	<path class="st0" d="M272.4,331.6h-98.9c-6.9,0-12.4-5.6-12.4-12.4v-175c0-6.9,5.6-12.4,12.4-12.4h98.9c6.9,0,12.4,5.6,12.4,12.4
		v175C284.8,326.1,279.2,331.6,272.4,331.6z"/>
	<rect x="161.1" y="157.5" class="st0" width="123.7" height="147.4"/>
	<path class="st1" d="M240.6,146.6h-35.5c-1.2,0-2.2-1-2.2-2.2l0,0c0-1.2,1-2.2,2.2-2.2h35.5c1.2,0,2.2,1,2.2,2.2l0,0
		C242.8,145.6,241.8,146.6,240.6,146.6z"/>
	<path class="st0" d="M354.3,380.3h-98.9c-6.9,0-12.4-5.6-12.4-12.4v-175c0-6.9,5.6-12.4,12.4-12.4h98.9c6.9,0,12.4,5.6,12.4,12.4
		v175C366.7,374.7,361.1,380.3,354.3,380.3z"/>
	<rect x="243" y="206.1" class="st0" width="123.7" height="147.4"/>
	<path class="st1" d="M322.6,195.2h-35.5c-1.2,0-2.2-1-2.2-2.2l0,0c0-1.2,1-2.2,2.2-2.2h35.5c1.2,0,2.2,1,2.2,2.2l0,0
		C324.8,194.2,323.8,195.2,322.6,195.2z"/>
	<path class="st0" d="M447.3,260.9c0-6.2-4.4-10.6-10.7-10.6h-134c-6.2,0-11.3,4.4-11.3,10.6v22.9v19.4v0.3c0,6.1,4.9,10.8,11,10.8
		h0.3h0.4c2.2,0,3.9,1.9,3.8,4.1l-0.1,2l-0.3,8.7c-0.1,3.6,4.3,5.4,6.7,2.8l10.5-11.4l4.4-4.8c0.7-0.8,1.7-1.3,2.8-1.3h105.9h0
		c6,0,10.7-4.7,11-10.6c0-0.2-0.3-0.3-0.3-0.5V260.9z"/>
	<rect x="319.3" y="269.3" class="st2" width="95" height="7"/>
	<rect x="319.3" y="289.3" class="st2" width="44" height="7"/>
	<path class="st0" d="M64.3,192.4c0-6.2,5.1-11.1,11.4-11.1h134c6.2,0,10.6,4.9,10.6,11.1v22.9v19.4v0.3c0,6.1-4.2,11.3-10.3,11.3
		h-0.3h-0.4c-2.2,0-3.9,1.7-3.8,3.9l0.1,1.9l0.3,8.6c0.1,3.6-4.3,5.4-6.7,2.7L188.8,252l-4.4-4.6c-0.7-0.8-1.7-1.1-2.8-1.1H75.7h0
		c-6,0-11-4.9-11.3-10.9c0-0.2,0-0.5,0-0.8V192.4z"/>
	<rect x="97.3" y="201.3" class="st2" width="95" height="7"/>
	<rect x="148.3" y="220.3" class="st2" width="44" height="7"/>
</g>
</svg>
